HIERARCHY
ROOT Hips
{
	OFFSET	0.000000	0.000000	0.000000
	CHANNELS 6 Xposition Yposition Zposition Zrotation Xrotation Yrotation
	JOINT LeftHip
	{
		OFFSET	12.830505	-7.049846	-1.643436
		CHANNELS 3 Zrotation Xrotation Yrotation
		JOINT LeftKnee
		{
			OFFSET	0.620834	-39.957502	-1.919341
			CHANNELS 3 Zrotation Xrotation Yrotation
			JOINT LeftAnkle
			{
				OFFSET	-0.413890	-44.704761	-3.870325
				CHANNELS 3 Zrotation Xrotation Yrotation
				JOINT LeftAnkleEnd
				{
					OFFSET	0.164738	-8.918194	-6.555130
					CHANNELS 3 Zrotation Xrotation Yrotation
					End Site
					{
						OFFSET	-0.604053	0.000000	21.044330
					}
				}
			}
		}
	}
	JOINT RightHip
	{
		OFFSET	-12.830505	-7.049846	-1.643436
		CHANNELS 3 Zrotation Xrotation Yrotation
		JOINT RightKnee
		{
			OFFSET	-0.620834	-39.957502	-1.919341
			CHANNELS 3 Zrotation Xrotation Yrotation
			JOINT RightAnkle
			{
				OFFSET	0.413890	-44.704761	-3.870325
				CHANNELS 3 Zrotation Xrotation Yrotation
				JOINT RightAnkleEnd
				{
					OFFSET	-0.164738	-8.918194	-6.555130
					CHANNELS 3 Zrotation Xrotation Yrotation
					End Site
					{
						OFFSET	0.604053	0.000000	21.044330
					}
				}
			}
		}
	}
	JOINT Chest
	{
		OFFSET	0.000000	12.498171	1.820647
		CHANNELS 3 Zrotation Xrotation Yrotation
		JOINT Chest1
		{
			OFFSET	0.000000	7.620000	0.000000
			CHANNELS 3 Zrotation Xrotation Yrotation
			JOINT LeftCollar
			{
				OFFSET	9.167800	29.136339	-5.551221
				CHANNELS 3 Zrotation Xrotation Yrotation
				JOINT LeftShoulder
				{
					OFFSET	12.133453	-3.880866	1.461963
					CHANNELS 3 Zrotation Xrotation Yrotation
					JOINT LeftElbow
					{
						OFFSET	2.507115	-31.664910	-1.069404
						CHANNELS 3 Zrotation Xrotation Yrotation
						JOINT LeftWrist
						{
							OFFSET	4.116172	-24.512624	5.009439
							CHANNELS 3 Zrotation Xrotation Yrotation
							End Site
							{
								OFFSET	-0.213136	-10.931856	2.182134
							}
						}
					}
				}
			}
			JOINT RightCollar
			{
				OFFSET	-9.167800	29.136339	-5.551221
				CHANNELS 3 Zrotation Xrotation Yrotation
				JOINT RightShoulder
				{
					OFFSET	-12.133453	-3.880866	1.461963
					CHANNELS 3 Zrotation Xrotation Yrotation
					JOINT RightElbow
					{
						OFFSET	-2.507115	-31.664910	-1.069404
						CHANNELS 3 Zrotation Xrotation Yrotation
						JOINT RightWrist
						{
							OFFSET	-4.116172	-24.512624	5.009439
							CHANNELS 3 Zrotation Xrotation Yrotation
							End Site
							{
								OFFSET	0.213136	-10.931856	2.182134
							}
						}
					}
				}
			}
			JOINT Neck
			{
				OFFSET	0.000000	32.926275	-3.635654
				CHANNELS 3 Zrotation Xrotation Yrotation
				JOINT Head
				{
					OFFSET	0.000000	12.481178	4.646143
					CHANNELS 3 Zrotation Xrotation Yrotation
					End Site
					{
						OFFSET	0.000000	17.715205	-2.222063
					}
				}
			}
		}
	}
}
MOTION
Frames:     11
Frame Time: 0.016667
3.316825	98.926528	1.511303	2.739053	2.290114	-44.835960	12.730729	-24.836538	17.796797	0.021530	31.811525	2.277674	-7.158707	-7.741014	-3.337731	0.	0.	0.	-18.660326	-17.649549	-11.934804	7.114181	27.760784	-1.852151	6.713542	-9.256150	12.410974	0.	0.	0.	-1.642697	-5.662577	44.665455	19.537794	8.832692	-35.583637	7.295049	-7.854169	4.242709	19.807148	-16.975737	4.099067	43.423534	-147.708588	64.023430	-4.326272	10.927386	-1.418775	-5.661554	-3.353828	-11.823380	-15.916265	-22.160818	4.175216	-67.319237	-127.657112	-77.475502	-7.272418	-5.239563	13.073504	-6.627107	10.347232	9.379483	-9.988897	-9.174356	11.297204	
3.588331	99.320845	1.730229	3.725478	1.866720	-46.279274	11.804033	-23.977312	18.362411	-0.233672	30.117815	2.616690	-7.031037	-6.920630	-2.580220	0.	0.	0.	-18.826244	-18.467072	-10.602898	5.709282	26.881750	-1.132040	7.282278	-8.224666	12.040804	0.	0.	0.	-2.491651	-6.120462	46.064716	19.391684	7.424526	-37.355793	8.465947	-7.547759	6.020469	28.758509	-21.030987	7.972286	40.799740	-143.697784	59.121197	-7.054730	12.875353	-1.540397	-5.428124	-2.722091	-10.626452	-16.393822	-22.187653	4.846130	-69.740395	-127.763283	-79.689873	-8.026776	-5.007216	12.999399	-9.021143	11.155709	11.226693	-9.509968	-7.958895	11.505897	
3.588332	99.320845	1.730230	3.725478	1.866720	-46.279274	11.804033	-23.977312	18.362411	-0.233672	30.117815	2.616690	-7.031037	-6.920630	-2.580220	0.	0.	0.	-18.826244	-18.467072	-10.602898	5.709282	26.881750	-1.132040	7.282278	-8.224666	12.040804	0.	0.	0.	-2.491651	-6.120462	46.064716	19.391684	7.424526	-37.355793	8.465947	-7.547759	6.020469	28.758509	-21.030987	7.972286	40.799740	-143.697784	59.121197	-7.054730	12.875353	-1.540397	-5.428124	-2.722091	-10.626452	-16.393822	-22.187653	4.846130	-69.740395	-127.763283	-79.689873	-8.026776	-5.007216	12.999399	-9.021143	11.155709	11.226693	-9.509968	-7.958895	11.505897	
3.873940	99.854747	1.804276	4.711629	2.085243	-47.460094	11.040652	-23.718836	17.556751	-0.843553	28.086718	4.819992	-6.949349	-5.631015	-2.414377	0.	0.	0.	-18.508993	-18.970085	-10.128423	4.286065	24.688129	-0.744092	7.816323	-6.445359	12.417665	0.	0.	0.	-2.878532	-7.041929	47.176865	19.708488	6.234207	-40.535805	10.163769	-7.152349	7.859520	36.982391	-24.887716	13.528902	45.952816	-134.553925	58.961567	-6.367225	11.297017	2.214649	-5.429529	-2.256490	-9.666579	-16.201521	-23.135605	6.625904	-72.820694	-128.049362	-82.368401	-8.857894	-5.049464	13.107354	-10.919806	10.858161	13.438328	-10.356740	-6.786473	12.423279	
4.097349	100.235653	1.812857	5.282903	2.468806	-48.320694	10.887519	-23.654499	17.070503	-1.275970	26.718655	6.189707	-6.891092	-4.728429	-2.188125	0.	0.	0.	-18.089808	-19.123602	-10.016236	3.541058	22.595833	-0.228904	8.031004	-4.880329	12.516158	0.	0.	0.	-2.872459	-7.763793	47.986294	20.159124	5.254518	-43.079487	11.311986	-7.150981	8.476350	42.737637	-26.643816	16.068323	55.423683	-124.374512	63.706806	-4.471777	9.704659	2.696169	-5.584375	-2.025753	-9.247573	-16.209864	-23.929533	8.170911	-74.460548	-128.408676	-83.997070	-9.177243	-5.122769	13.155542	-13.191196	10.506047	15.755463	-10.051602	-6.616201	12.785752	
4.300331	100.602995	1.766451	5.714906	2.889311	-49.123215	10.898114	-23.623760	16.687654	-1.566452	25.491415	6.935660	-6.843007	-3.870471	-1.569256	0.	0.	0.	-17.678705	-19.023968	-9.914412	3.223666	20.257231	-0.131126	8.050490	-3.144607	12.851285	0.	0.	0.	-2.734331	-8.403066	48.745789	21.063816	4.341031	-45.648342	12.143863	-7.407978	8.312033	48.921757	-28.597723	19.436943	80.398064	-114.379463	83.700668	-3.352950	9.397622	1.354210	-5.927696	-2.087629	-8.905401	-16.701548	-24.736452	9.529860	-75.231758	-128.824219	-85.113762	-9.364583	-5.239717	13.056021	-16.526241	9.196898	18.429501	-8.117309	-6.153533	12.318498	
4.752026	100.832274	1.414567	5.989077	3.307314	-49.818451	11.166269	-23.801151	16.850374	-1.569750	24.771431	6.735061	-6.842288	-3.313619	-0.730975	0.	0.	0.	-17.316725	-19.223005	-9.461351	3.319425	18.369530	-0.956565	7.941517	-1.485806	13.557494	0.	0.	0.	-2.494347	-8.913329	49.411198	22.082485	3.599780	-47.924908	12.079132	-7.591534	9.100633	53.858578	-33.662384	20.825760	-65.989166	-67.891068	-64.296127	-4.415242	10.262289	0.639568	-6.615305	-2.452024	-7.765992	-17.413176	-24.785313	9.754068	-74.776024	-129.328171	-85.076340	-9.470240	-5.016446	12.753008	-18.563728	8.178056	20.371645	-6.879198	-5.805455	12.251935	
4.753162	101.135705	1.295041	6.330324	3.931173	-50.670750	11.153675	-24.377867	15.259244	-1.870906	24.357924	8.343079	-6.838306	-2.538235	0.053542	0.	0.	0.	-16.650551	-18.946241	-8.900314	3.330221	15.694580	-1.735731	7.994998	0.483884	14.511991	0.	0.	0.	-2.101505	-9.606910	50.225384	23.301556	2.833042	-51.145069	13.049547	-9.506932	4.992280	57.223213	-35.603088	24.207693	-4.944083	-40.927410	-20.926279	-2.685787	6.017571	-0.827392	-6.289185	-2.899614	-8.650979	-17.900394	-25.760323	12.891646	-75.115112	-129.365158	-85.770264	-9.489683	-5.565053	12.244186	-17.794149	7.704260	19.656437	-5.050407	-5.173516	16.258251	
4.758622	101.177699	1.086093	6.523824	4.303189	-51.311859	11.505323	-25.220131	14.951084	-1.979936	24.900423	8.497351	-6.849560	-2.412682	0.876709	0.	0.	0.	-16.116642	-19.559574	-9.085390	2.904010	15.350260	-0.671241	8.210773	1.108145	14.394632	0.	0.	0.	-1.827801	-10.012325	50.848167	23.828012	2.504973	-54.256889	12.238512	-10.922413	4.076511	64.902115	-38.076450	25.835924	3.941260	-19.780230	-12.874326	-1.493042	4.233374	-2.299858	-5.913720	-3.238120	-7.738215	-17.979353	-26.554409	14.183928	-75.473236	-129.557816	-85.944786	-9.823014	-5.741609	11.955948	-17.602831	6.614233	19.112955	-4.158321	-5.715393	20.158184	
4.767059	101.127799	0.888701	6.495656	4.611523	-52.229237	12.153157	-26.042761	15.448076	-1.873012	26.026691	8.076930	-6.861774	-2.750986	1.701109	0.	0.	0.	-15.550823	-20.481464	-9.594183	2.503061	15.836683	1.042814	8.354815	1.499090	14.179444	0.	0.	0.	-1.405157	-10.206944	51.777023	24.538151	2.372657	-58.173023	11.247362	-11.361648	2.576920	73.309265	-36.500431	30.951900	6.876935	-7.365786	-9.537149	-4.340023	5.767986	-3.265668	-5.405375	-3.812865	-6.887611	-17.693701	-27.964334	16.019815	-76.240898	-129.561676	-85.951195	-9.839662	-5.807262	12.048116	-18.172724	4.990012	15.344024	-0.982028	-5.624189	28.186609	
4.767059	101.127799	0.888701	6.495656	4.611523	-52.229237	12.153157	-26.042761	15.448076	-1.873012	26.026691	8.076930	-6.861774	-2.750986	1.701109	0.	0.	0.	-15.550823	-20.481464	-9.594183	2.503061	15.836683	1.042814	8.354815	1.499090	14.179444	0.	0.	0.	-1.405157	-10.206944	51.777023	24.538151	2.372657	-58.173023	11.247362	-11.361648	2.576920	73.309265	-36.500431	30.951900	6.876935	-7.365786	-9.537149	-4.340023	5.767986	-3.265668	-5.405375	-3.812865	-6.887611	-17.693701	-27.964334	16.019815	-76.240898	-129.561676	-85.951195	-9.839662	-5.807262	12.048116	-18.172724	4.990012	15.344024	-0.982028	-5.624189	28.186609	
